<?xml version="1.0"?>
<svg xmlns="http://www.w3.org/2000/svg" xmlns:xlink="http://www.w3.org/1999/xlink" version="1.1" width="320px" height="320px" viewBox="0 0 320 320"><rect x="0" y="0" width="320" height="320" fill="#ffffff" fill-opacity="1"/><path fill="#000000" fill-opacity="1" d="M13,13L111,13L111,27L13,27ZM139,13L153,13L153,27L139,27ZM167,13L195,13L195,27L167,27ZM209,13L307,13L307,27L209,27ZM13,27L27,27L27,41L13,41ZM97,27L111,27L111,41L97,41ZM139,27L181,27L181,41L139,41ZM209,27L223,27L223,41L209,41ZM293,27L307,27L307,41L293,41ZM13,41L27,41L27,55L13,55ZM41,41L83,41L83,55L41,55ZM97,41L111,41L111,55L97,55ZM125,41L153,41L153,55L125,55ZM167,41L195,41L195,55L167,55ZM209,41L223,41L223,55L209,55ZM237,41L279,41L279,55L237,55ZM293,41L307,41L307,55L293,55ZM13,55L27,55L27,69L13,69ZM41,55L83,55L83,69L41,69ZM97,55L111,55L111,69L97,69ZM139,55L153,55L153,69L139,69ZM167,55L181,55L181,69L167,69ZM209,55L223,55L223,69L209,69ZM237,55L279,55L279,69L237,69ZM293,55L307,55L307,69L293,69ZM13,69L27,69L27,83L13,83ZM41,69L83,69L83,83L41,83ZM97,69L111,69L111,83L97,83ZM153,69L167,69L167,83L153,83ZM181,69L195,69L195,83L181,83ZM209,69L223,69L223,83L209,83ZM237,69L279,69L279,83L237,83ZM293,69L307,69L307,83L293,83ZM13,83L27,83L27,97L13,97ZM97,83L111,83L111,97L97,97ZM181,83L195,83L195,97L181,97ZM209,83L223,83L223,97L209,97ZM293,83L307,83L307,97L293,97ZM13,97L111,97L111,111L13,111ZM125,97L139,97L139,111L125,111ZM153,97L167,97L167,111L153,111ZM181,97L195,97L195,111L181,111ZM209,97L307,97L307,111L209,111ZM125,111L153,111L153,125L125,125ZM167,111L195,111L195,125L167,125ZM13,125L55,125L55,139L13,139ZM69,125L181,125L181,139L69,139ZM195,125L223,125L223,139L195,139ZM265,125L279,125L279,139L265,139ZM13,139L69,139L69,153L13,153ZM83,139L97,139L97,153L83,153ZM139,139L167,139L167,153L139,153ZM195,139L209,139L209,153L195,153ZM223,139L265,139L265,153L223,153ZM293,139L307,139L307,153L293,153ZM13,153L69,153L69,167L13,167ZM83,153L139,153L139,167L83,167ZM153,153L167,153L167,167L153,167ZM181,153L223,153L223,167L181,167ZM237,153L251,153L251,167L237,167ZM27,167L41,167L41,181L27,181ZM55,167L83,167L83,181L55,181ZM111,167L125,167L125,181L111,181ZM209,167L223,167L223,181L209,181ZM237,167L251,167L251,181L237,181ZM279,167L307,167L307,181L279,181ZM13,181L41,181L41,195L13,195ZM97,181L139,181L139,195L97,195ZM181,181L195,181L195,195L181,195ZM223,181L237,181L237,195L223,195ZM251,181L265,181L265,195L251,195ZM279,181L293,181L293,195L279,195ZM125,195L153,195L153,209L125,209ZM167,195L181,195L181,209L167,209ZM195,195L209,195L209,209L195,209ZM279,195L293,195L293,209L279,209ZM13,209L111,209L111,223L13,223ZM125,209L139,209L139,223L125,223ZM167,209L181,209L181,223L167,223ZM209,209L223,209L223,223L209,223ZM237,209L251,209L251,223L237,223ZM293,209L307,209L307,223L293,223ZM13,223L27,223L27,237L13,237ZM97,223L111,223L111,237L97,237ZM125,223L139,223L139,237L125,237ZM153,223L209,223L209,237L153,237ZM223,223L307,223L307,237L223,237ZM13,237L27,237L27,251L13,251ZM41,237L83,237L83,251L41,251ZM97,237L111,237L111,251L97,251ZM125,237L139,237L139,251L125,251ZM153,237L181,237L181,251L153,251ZM209,237L223,237L223,251L209,251ZM279,237L307,237L307,251L279,251ZM13,251L27,251L27,265L13,265ZM41,251L83,251L83,265L41,265ZM97,251L111,251L111,265L97,265ZM139,251L153,251L153,265L139,265ZM209,251L265,251L265,265L209,265ZM279,251L293,251L293,265L279,265ZM13,265L27,265L27,279L13,279ZM41,265L83,265L83,279L41,279ZM97,265L111,265L111,279L97,279ZM125,265L139,265L139,279L125,279ZM153,265L167,265L167,279L153,279ZM181,265L195,265L195,279L181,279ZM265,265L279,265L279,279L265,279ZM293,265L307,265L307,279L293,279ZM13,279L27,279L27,293L13,293ZM97,279L111,279L111,293L97,293ZM125,279L153,279L153,293L125,293ZM209,279L223,279L223,293L209,293ZM251,279L307,279L307,293L251,293ZM13,293L111,293L111,307L13,307ZM125,293L139,293L139,307L125,307ZM153,293L167,293L167,307L153,307ZM181,293L195,293L195,307L181,307ZM209,293L251,293L251,307L209,307ZM265,293L279,293L279,307L265,307ZM293,293L307,293L307,307L293,307Z"/></svg>
