<?xml version="1.0"?>
<svg xmlns="http://www.w3.org/2000/svg" xmlns:xlink="http://www.w3.org/1999/xlink" version="1.1" width="320px" height="320px" viewBox="0 0 320 320"><rect x="0" y="0" width="320" height="320" fill="#ffffff" fill-opacity="1"/><path fill="#000000" fill-opacity="1" d="M10,10L94,10L94,22L10,22ZM118,10L130,10L130,22L118,22ZM142,10L178,10L178,22L142,22ZM226,10L310,10L310,22L226,22ZM10,22L22,22L22,34L10,34ZM82,22L94,22L94,34L82,34ZM118,22L166,22L166,34L118,34ZM202,22L214,22L214,34L202,34ZM226,22L238,22L238,34L226,34ZM298,22L310,22L310,34L298,34ZM10,34L22,34L22,46L10,46ZM34,34L70,34L70,46L34,46ZM82,34L94,34L94,46L82,46ZM106,34L118,34L118,46L106,46ZM154,34L166,34L166,46L154,46ZM190,34L202,34L202,46L190,46ZM226,34L238,34L238,46L226,46ZM250,34L286,34L286,46L250,46ZM298,34L310,34L310,46L298,46ZM10,46L22,46L22,58L10,58ZM34,46L70,46L70,58L34,58ZM82,46L94,46L94,58L82,58ZM106,46L154,46L154,58L106,58ZM166,46L178,46L178,58L166,58ZM190,46L202,46L202,58L190,58ZM226,46L238,46L238,58L226,58ZM250,46L286,46L286,58L250,58ZM298,46L310,46L310,58L298,58ZM10,58L22,58L22,70L10,70ZM34,58L70,58L70,70L34,70ZM82,58L94,58L94,70L82,70ZM130,58L142,58L142,70L130,70ZM154,58L190,58L190,70L154,70ZM226,58L238,58L238,70L226,70ZM250,58L286,58L286,70L250,70ZM298,58L310,58L310,70L298,70ZM10,70L22,70L22,82L10,82ZM82,70L94,70L94,82L82,82ZM118,70L130,70L130,82L118,82ZM154,70L190,70L190,82L154,82ZM226,70L238,70L238,82L226,82ZM298,70L310,70L310,82L298,82ZM10,82L94,82L94,94L10,94ZM106,82L118,82L118,94L106,94ZM130,82L142,82L142,94L130,94ZM154,82L166,82L166,94L154,94ZM178,82L190,82L190,94L178,94ZM202,82L214,82L214,94L202,94ZM226,82L310,82L310,94L226,94ZM154,94L166,94L166,106L154,106ZM190,94L214,94L214,106L190,106ZM46,106L70,106L70,118L46,118ZM82,106L106,106L106,118L82,118ZM118,106L190,106L190,118L118,118ZM262,106L286,106L286,118L262,118ZM58,118L82,118L82,130L58,130ZM94,118L118,118L118,130L94,130ZM130,118L166,118L166,130L130,130ZM178,118L202,118L202,130L178,130ZM226,118L238,118L238,130L226,130ZM250,118L286,118L286,130L250,130ZM298,118L310,118L310,130L298,130ZM10,130L22,130L22,142L10,142ZM34,130L46,130L46,142L34,142ZM82,130L130,130L130,142L82,142ZM154,130L190,130L190,142L154,142ZM202,130L238,130L238,142L202,142ZM262,130L286,130L286,142L262,142ZM298,130L310,130L310,142L298,142ZM34,142L82,142L82,154L34,154ZM106,142L142,142L142,154L106,154ZM166,142L238,142L238,154L166,154ZM286,142L310,142L310,154L286,154ZM22,154L46,154L46,166L22,166ZM58,154L94,154L94,166L58,166ZM118,154L142,154L142,166L118,166ZM154,154L178,154L178,166L154,166ZM190,154L202,154L202,166L190,166ZM214,154L262,154L262,166L214,166ZM274,154L286,154L286,166L274,166ZM298,154L310,154L310,166L298,166ZM10,166L22,166L22,178L10,178ZM118,166L130,166L130,178L118,178ZM166,166L190,166L190,178L166,178ZM226,166L250,166L250,178L226,178ZM262,166L274,166L274,178L262,178ZM286,166L298,166L298,178L286,178ZM10,178L70,178L70,190L10,190ZM82,178L106,178L106,190L82,190ZM154,178L202,178L202,190L154,190ZM214,178L226,178L226,190L214,190ZM250,178L274,178L274,190L250,190ZM286,178L310,178L310,190L286,190ZM10,190L22,190L22,202L10,202ZM46,190L58,190L58,202L46,202ZM70,190L82,190L82,202L70,202ZM106,190L118,190L118,202L106,202ZM142,190L178,190L178,202L142,202ZM202,190L214,190L214,202L202,202ZM238,190L250,190L250,202L238,202ZM274,190L310,190L310,202L274,202ZM10,202L22,202L22,214L10,214ZM46,202L58,202L58,214L46,214ZM70,202L94,202L94,214L70,214ZM106,202L142,202L142,214L106,214ZM154,202L274,202L274,214L154,214ZM286,202L310,202L310,214L286,214ZM106,214L118,214L118,226L106,226ZM130,214L154,214L154,226L130,226ZM178,214L190,214L190,226L178,226ZM202,214L214,214L214,226L202,226ZM250,214L286,214L286,226L250,226ZM298,214L310,214L310,226L298,226ZM10,226L94,226L94,238L10,238ZM106,226L118,226L118,238L106,238ZM130,226L142,226L142,238L130,238ZM154,226L214,226L214,238L154,238ZM226,226L238,226L238,238L226,238ZM250,226L298,226L298,238L250,238ZM10,238L22,238L22,250L10,250ZM82,238L94,238L94,250L82,250ZM142,238L178,238L178,250L142,250ZM190,238L214,238L214,250L190,250ZM250,238L262,238L262,250L250,250ZM274,238L286,238L286,250L274,250ZM10,250L22,250L22,262L10,262ZM34,250L70,250L70,262L34,262ZM82,250L94,250L94,262L82,262ZM106,250L118,250L118,262L106,262ZM142,250L166,250L166,262L142,262ZM202,250L274,250L274,262L202,262ZM286,250L310,250L310,262L286,262ZM10,262L22,262L22,274L10,274ZM34,262L70,262L70,274L34,274ZM82,262L94,262L94,274L82,274ZM106,262L142,262L142,274L106,274ZM214,262L226,262L226,274L214,274ZM250,262L262,262L262,274L250,274ZM298,262L310,262L310,274L298,274ZM10,274L22,274L22,286L10,286ZM34,274L70,274L70,286L34,286ZM82,274L94,274L94,286L82,286ZM118,274L178,274L178,286L118,286ZM202,274L262,274L262,286L202,286ZM286,274L310,274L310,286L286,286ZM10,286L22,286L22,298L10,298ZM82,286L94,286L94,298L82,298ZM118,286L130,286L130,298L118,298ZM154,286L166,286L166,298L154,298ZM178,286L238,286L238,298L178,298ZM262,286L298,286L298,298L262,298ZM10,298L94,298L94,310L10,310ZM118,298L130,298L130,310L118,310ZM142,298L154,298L154,310L142,310ZM178,298L214,298L214,310L178,310ZM226,298L238,298L238,310L226,310ZM250,298L310,298L310,310L250,310Z"/></svg>
