<?xml version="1.0"?>
<svg xmlns="http://www.w3.org/2000/svg" xmlns:xlink="http://www.w3.org/1999/xlink" version="1.1" width="320px" height="320px" viewBox="0 0 320 320"><rect x="0" y="0" width="320" height="320" fill="#ffffff" fill-opacity="1"/><path fill="#000000" fill-opacity="1" d="M10,10L94,10L94,22L10,22ZM106,10L118,10L118,22L106,22ZM130,10L154,10L154,22L130,22ZM166,10L190,10L190,22L166,22ZM226,10L310,10L310,22L226,22ZM10,22L22,22L22,34L10,34ZM82,22L94,22L94,34L82,34ZM106,22L118,22L118,34L106,34ZM142,22L166,22L166,34L142,34ZM226,22L238,22L238,34L226,34ZM298,22L310,22L310,34L298,34ZM10,34L22,34L22,46L10,46ZM34,34L70,34L70,46L34,46ZM82,34L94,34L94,46L82,46ZM106,34L142,34L142,46L106,46ZM154,34L214,34L214,46L154,46ZM226,34L238,34L238,46L226,46ZM250,34L286,34L286,46L250,46ZM298,34L310,34L310,46L298,46ZM10,46L22,46L22,58L10,58ZM34,46L70,46L70,58L34,58ZM82,46L94,46L94,58L82,58ZM154,46L214,46L214,58L154,58ZM226,46L238,46L238,58L226,58ZM250,46L286,46L286,58L250,58ZM298,46L310,46L310,58L298,58ZM10,58L22,58L22,70L10,70ZM34,58L70,58L70,70L34,70ZM82,58L94,58L94,70L82,70ZM118,58L178,58L178,70L118,70ZM190,58L202,58L202,70L190,70ZM226,58L238,58L238,70L226,70ZM250,58L286,58L286,70L250,70ZM298,58L310,58L310,70L298,70ZM10,70L22,70L22,82L10,82ZM82,70L94,70L94,82L82,82ZM106,70L118,70L118,82L106,82ZM142,70L154,70L154,82L142,82ZM190,70L214,70L214,82L190,82ZM226,70L238,70L238,82L226,82ZM298,70L310,70L310,82L298,82ZM10,82L94,82L94,94L10,94ZM106,82L118,82L118,94L106,94ZM130,82L142,82L142,94L130,94ZM154,82L166,82L166,94L154,94ZM178,82L190,82L190,94L178,94ZM202,82L214,82L214,94L202,94ZM226,82L310,82L310,94L226,94ZM106,94L118,94L118,106L106,106ZM142,94L166,94L166,106L142,106ZM190,94L214,94L214,106L190,106ZM34,106L70,106L70,118L34,118ZM82,106L94,106L94,118L82,118ZM106,106L142,106L142,118L106,118ZM166,106L178,106L178,118L166,118ZM190,106L202,106L202,118L190,118ZM214,106L250,106L250,118L214,118ZM274,106L310,106L310,118L274,118ZM10,118L22,118L22,130L10,130ZM34,118L70,118L70,130L34,130ZM106,118L118,118L118,130L106,130ZM142,118L166,118L166,130L142,130ZM226,118L238,118L238,130L226,130ZM250,118L262,118L262,130L250,130ZM274,118L286,118L286,130L274,130ZM298,118L310,118L310,130L298,130ZM10,130L22,130L22,142L10,142ZM46,130L58,130L58,142L46,142ZM82,130L154,130L154,142L82,142ZM190,130L214,130L214,142L190,142ZM226,130L238,130L238,142L226,142ZM250,130L274,130L274,142L250,142ZM286,130L310,130L310,142L286,142ZM154,142L202,142L202,154L154,154ZM226,142L238,142L238,154L226,154ZM262,142L274,142L274,154L262,154ZM298,142L310,142L310,154L298,154ZM34,154L46,154L46,166L34,166ZM58,154L142,154L142,166L58,166ZM154,154L214,154L214,166L154,166ZM226,154L238,154L238,166L226,166ZM250,154L274,154L274,166L250,166ZM286,154L310,154L310,166L286,166ZM10,166L46,166L46,178L10,178ZM70,166L82,166L82,178L70,178ZM94,166L106,166L106,178L94,178ZM118,166L130,166L130,178L118,178ZM154,166L178,166L178,178L154,178ZM190,166L202,166L202,178L190,178ZM226,166L238,166L238,178L226,178ZM262,166L274,166L274,178L262,178ZM286,166L298,166L298,178L286,178ZM10,178L22,178L22,190L10,190ZM70,178L94,178L94,190L70,190ZM118,178L142,178L142,190L118,190ZM154,178L178,178L178,190L154,190ZM190,178L226,178L226,190L190,190ZM262,178L274,178L274,190L262,190ZM286,178L310,178L310,190L286,190ZM10,190L22,190L22,202L10,202ZM34,190L58,190L58,202L34,202ZM94,190L106,190L106,202L94,202ZM130,190L142,190L142,202L130,202ZM154,190L166,190L166,202L154,202ZM190,190L202,190L202,202L190,202ZM250,190L310,190L310,202L250,202ZM10,202L22,202L22,214L10,214ZM34,202L46,202L46,214L34,214ZM58,202L118,202L118,214L58,214ZM154,202L166,202L166,214L154,214ZM178,202L274,202L274,214L178,214ZM298,202L310,202L310,214L298,214ZM106,214L142,214L142,226L106,226ZM154,214L166,214L166,226L154,226ZM190,214L214,214L214,226L190,226ZM250,214L274,214L274,226L250,226ZM286,214L310,214L310,226L286,226ZM10,226L94,226L94,238L10,238ZM178,226L214,226L214,238L178,238ZM226,226L238,226L238,238L226,238ZM250,226L274,226L274,238L250,238ZM10,238L22,238L22,250L10,250ZM82,238L94,238L94,250L82,250ZM118,238L130,238L130,250L118,250ZM154,238L166,238L166,250L154,250ZM202,238L214,238L214,250L202,250ZM250,238L262,238L262,250L250,250ZM10,250L22,250L22,262L10,262ZM34,250L70,250L70,262L34,262ZM82,250L94,250L94,262L82,262ZM106,250L118,250L118,262L106,262ZM142,250L154,250L154,262L142,262ZM166,250L190,250L190,262L166,262ZM202,250L262,250L262,262L202,262ZM274,250L310,250L310,262L274,262ZM10,262L22,262L22,274L10,274ZM34,262L70,262L70,274L34,274ZM82,262L94,262L94,274L82,274ZM106,262L142,262L142,274L106,274ZM166,262L226,262L226,274L166,274ZM250,262L286,262L286,274L250,274ZM298,262L310,262L310,274L298,274ZM10,274L22,274L22,286L10,286ZM34,274L70,274L70,286L34,286ZM82,274L94,274L94,286L82,286ZM106,274L118,274L118,286L106,286ZM142,274L190,274L190,286L142,286ZM202,274L214,274L214,286L202,286ZM226,274L238,274L238,286L226,286ZM298,274L310,274L310,286L298,286ZM10,286L22,286L22,298L10,298ZM82,286L94,286L94,298L82,298ZM154,286L166,286L166,298L154,298ZM178,286L190,286L190,298L178,298ZM226,286L238,286L238,298L226,298ZM10,298L94,298L94,310L10,310ZM118,298L154,298L154,310L118,310ZM166,298L202,298L202,310L166,310ZM214,298L250,298L250,310L214,310ZM274,298L286,298L286,310L274,310ZM298,298L310,298L310,310L298,310Z"/></svg>
