<?xml version="1.0"?>
<svg xmlns="http://www.w3.org/2000/svg" xmlns:xlink="http://www.w3.org/1999/xlink" version="1.1" width="320px" height="320px" viewBox="0 0 320 320"><rect x="0" y="0" width="320" height="320" fill="#ffffff" fill-opacity="1"/><path fill="#000000" fill-opacity="1" d="M10,10L94,10L94,22L10,22ZM106,10L118,10L118,22L106,22ZM154,10L166,10L166,22L154,22ZM190,10L202,10L202,22L190,22ZM226,10L310,10L310,22L226,22ZM10,22L22,22L22,34L10,34ZM82,22L94,22L94,34L82,34ZM106,22L118,22L118,34L106,34ZM130,22L142,22L142,34L130,34ZM154,22L178,22L178,34L154,34ZM190,22L202,22L202,34L190,34ZM226,22L238,22L238,34L226,34ZM298,22L310,22L310,34L298,34ZM10,34L22,34L22,46L10,46ZM34,34L70,34L70,46L34,46ZM82,34L94,34L94,46L82,46ZM106,34L142,34L142,46L106,46ZM202,34L214,34L214,46L202,46ZM226,34L238,34L238,46L226,46ZM250,34L286,34L286,46L250,46ZM298,34L310,34L310,46L298,46ZM10,46L22,46L22,58L10,58ZM34,46L70,46L70,58L34,58ZM82,46L94,46L94,58L82,58ZM130,46L142,46L142,58L130,58ZM154,46L178,46L178,58L154,58ZM190,46L202,46L202,58L190,58ZM226,46L238,46L238,58L226,58ZM250,46L286,46L286,58L250,58ZM298,46L310,46L310,58L298,58ZM10,58L22,58L22,70L10,70ZM34,58L70,58L70,70L34,70ZM82,58L94,58L94,70L82,70ZM130,58L154,58L154,70L130,70ZM166,58L202,58L202,70L166,70ZM226,58L238,58L238,70L226,70ZM250,58L286,58L286,70L250,70ZM298,58L310,58L310,70L298,70ZM10,70L22,70L22,82L10,82ZM82,70L94,70L94,82L82,82ZM106,70L118,70L118,82L106,82ZM154,70L178,70L178,82L154,82ZM190,70L202,70L202,82L190,82ZM226,70L238,70L238,82L226,82ZM298,70L310,70L310,82L298,82ZM10,82L94,82L94,94L10,94ZM106,82L118,82L118,94L106,94ZM130,82L142,82L142,94L130,94ZM154,82L166,82L166,94L154,94ZM178,82L190,82L190,94L178,94ZM202,82L214,82L214,94L202,94ZM226,82L310,82L310,94L226,94ZM106,94L130,94L130,106L106,106ZM142,94L178,94L178,106L142,106ZM190,94L214,94L214,106L190,106ZM34,106L70,106L70,118L34,118ZM82,106L94,106L94,118L82,118ZM106,106L130,106L130,118L106,118ZM142,106L166,106L166,118L142,118ZM190,106L250,106L250,118L190,118ZM274,106L310,106L310,118L274,118ZM34,118L82,118L82,130L34,130ZM106,118L118,118L118,130L106,130ZM166,118L190,118L190,130L166,130ZM226,118L238,118L238,130L226,130ZM262,118L274,118L274,130L262,130ZM286,118L310,118L310,130L286,130ZM22,130L34,130L34,142L22,142ZM82,130L94,130L94,142L82,142ZM130,130L154,130L154,142L130,142ZM178,130L190,130L190,142L178,142ZM202,130L214,130L214,142L202,142ZM226,130L250,130L250,142L226,142ZM262,130L286,130L286,142L262,142ZM22,142L34,142L34,154L22,154ZM46,142L70,142L70,154L46,154ZM106,142L130,142L130,154L106,154ZM226,142L250,142L250,154L226,154ZM262,142L286,142L286,154L262,154ZM298,142L310,142L310,154L298,154ZM10,154L22,154L22,166L10,166ZM46,154L58,154L58,166L46,166ZM82,154L94,154L94,166L82,166ZM118,154L142,154L142,166L118,166ZM154,154L166,154L166,166L154,166ZM190,154L214,154L214,166L190,166ZM226,154L238,154L238,166L226,166ZM262,154L310,154L310,166L262,166ZM10,166L34,166L34,178L10,178ZM46,166L58,166L58,178L46,178ZM70,166L82,166L82,178L70,178ZM94,166L118,166L118,178L94,178ZM166,166L202,166L202,178L166,178ZM226,166L238,166L238,178L226,178ZM250,166L298,166L298,178L250,178ZM10,178L22,178L22,190L10,190ZM46,178L94,178L94,190L46,190ZM106,178L130,178L130,190L106,190ZM142,178L154,178L154,190L142,190ZM190,178L226,178L226,190L190,190ZM238,178L262,178L262,190L238,190ZM274,178L310,178L310,190L274,190ZM10,190L22,190L22,202L10,202ZM70,190L82,190L82,202L70,202ZM106,190L142,190L142,202L106,202ZM178,190L202,190L202,202L178,202ZM286,190L310,190L310,202L286,202ZM10,202L22,202L22,214L10,214ZM58,202L118,202L118,214L58,214ZM130,202L154,202L154,214L130,214ZM166,202L178,202L178,214L166,214ZM190,202L262,202L262,214L190,214ZM298,202L310,202L310,214L298,214ZM106,214L118,214L118,226L106,226ZM130,214L142,214L142,226L130,226ZM154,214L178,214L178,226L154,226ZM190,214L214,214L214,226L190,226ZM250,214L274,214L274,226L250,226ZM286,214L310,214L310,226L286,226ZM10,226L94,226L94,238L10,238ZM118,226L130,226L130,238L118,238ZM142,226L154,226L154,238L142,238ZM190,226L214,226L214,238L190,238ZM226,226L238,226L238,238L226,238ZM250,226L286,226L286,238L250,238ZM10,238L22,238L22,250L10,250ZM82,238L94,238L94,250L82,250ZM118,238L130,238L130,250L118,250ZM142,238L166,238L166,250L142,250ZM178,238L190,238L190,250L178,250ZM202,238L214,238L214,250L202,250ZM250,238L262,238L262,250L250,250ZM274,238L286,238L286,250L274,250ZM10,250L22,250L22,262L10,262ZM34,250L70,250L70,262L34,262ZM82,250L94,250L94,262L82,262ZM106,250L130,250L130,262L106,262ZM178,250L190,250L190,262L178,262ZM202,250L274,250L274,262L202,262ZM286,250L310,250L310,262L286,262ZM10,262L22,262L22,274L10,274ZM34,262L70,262L70,274L34,274ZM82,262L94,262L94,274L82,274ZM106,262L130,262L130,274L106,274ZM154,262L166,262L166,274L154,274ZM190,262L226,262L226,274L190,274ZM262,262L274,262L274,274L262,274ZM298,262L310,262L310,274L298,274ZM10,274L22,274L22,286L10,286ZM34,274L70,274L70,286L34,286ZM82,274L94,274L94,286L82,286ZM106,274L118,274L118,286L106,286ZM142,274L154,274L154,286L142,286ZM178,274L190,274L190,286L178,286ZM202,274L214,274L214,286L202,286ZM226,274L250,274L250,286L226,286ZM262,274L274,274L274,286L262,286ZM298,274L310,274L310,286L298,286ZM10,286L22,286L22,298L10,298ZM82,286L94,286L94,298L82,298ZM130,286L190,286L190,298L130,298ZM226,286L262,286L262,298L226,298ZM274,286L286,286L286,298L274,298ZM10,298L94,298L94,310L10,310ZM166,298L202,298L202,310L166,310ZM214,298L286,298L286,310L214,310ZM298,298L310,298L310,310L298,310Z"/></svg>
