<?xml version="1.0"?>
<svg xmlns="http://www.w3.org/2000/svg" xmlns:xlink="http://www.w3.org/1999/xlink" version="1.1" width="320px" height="320px" viewBox="0 0 320 320"><rect x="0" y="0" width="320" height="320" fill="#ffffff" fill-opacity="1"/><path fill="#000000" fill-opacity="1" d="M10,10L94,10L94,22L10,22ZM118,10L142,10L142,22L118,22ZM166,10L178,10L178,22L166,22ZM202,10L214,10L214,22L202,22ZM226,10L310,10L310,22L226,22ZM10,22L22,22L22,34L10,34ZM82,22L94,22L94,34L82,34ZM106,22L118,22L118,34L106,34ZM142,22L178,22L178,34L142,34ZM226,22L238,22L238,34L226,34ZM298,22L310,22L310,34L298,34ZM10,34L22,34L22,46L10,46ZM34,34L70,34L70,46L34,46ZM82,34L94,34L94,46L82,46ZM106,34L142,34L142,46L106,46ZM154,34L178,34L178,46L154,46ZM202,34L214,34L214,46L202,46ZM226,34L238,34L238,46L226,46ZM250,34L286,34L286,46L250,46ZM298,34L310,34L310,46L298,46ZM10,46L22,46L22,58L10,58ZM34,46L70,46L70,58L34,58ZM82,46L94,46L94,58L82,58ZM106,46L118,46L118,58L106,58ZM130,46L154,46L154,58L130,58ZM166,46L202,46L202,58L166,58ZM226,46L238,46L238,58L226,58ZM250,46L286,46L286,58L250,58ZM298,46L310,46L310,58L298,58ZM10,58L22,58L22,70L10,70ZM34,58L70,58L70,70L34,70ZM82,58L94,58L94,70L82,70ZM106,58L130,58L130,70L106,70ZM154,58L166,58L166,70L154,70ZM190,58L214,58L214,70L190,70ZM226,58L238,58L238,70L226,70ZM250,58L286,58L286,70L250,70ZM298,58L310,58L310,70L298,70ZM10,70L22,70L22,82L10,82ZM82,70L94,70L94,82L82,82ZM106,70L130,70L130,82L106,82ZM226,70L238,70L238,82L226,82ZM298,70L310,70L310,82L298,82ZM10,82L94,82L94,94L10,94ZM106,82L118,82L118,94L106,94ZM130,82L142,82L142,94L130,94ZM154,82L166,82L166,94L154,94ZM178,82L190,82L190,94L178,94ZM202,82L214,82L214,94L202,94ZM226,82L310,82L310,94L226,94ZM166,94L178,94L178,106L166,106ZM34,106L46,106L46,118L34,118ZM70,106L118,106L118,118L70,118ZM142,106L154,106L154,118L142,118ZM190,106L202,106L202,118L190,118ZM214,106L226,106L226,118L214,118ZM238,106L298,106L298,118L238,118ZM46,118L58,118L58,130L46,130ZM70,118L82,118L82,130L70,130ZM94,118L106,118L106,130L94,130ZM118,118L130,118L130,130L118,130ZM142,118L166,118L166,130L142,130ZM178,118L190,118L190,130L178,130ZM202,118L214,118L214,130L202,130ZM250,118L262,118L262,130L250,130ZM286,118L298,118L298,130L286,130ZM10,130L46,130L46,142L10,142ZM70,130L94,130L94,142L70,142ZM118,130L130,130L130,142L118,142ZM202,130L238,130L238,142L202,142ZM250,130L274,130L274,142L250,142ZM286,130L298,130L298,142L286,142ZM22,142L58,142L58,154L22,154ZM70,142L82,142L82,154L70,154ZM94,142L130,142L130,154L94,154ZM178,142L202,142L202,154L178,154ZM274,142L286,142L286,154L274,154ZM10,154L22,154L22,166L10,166ZM46,154L58,154L58,166L46,166ZM82,154L106,154L106,166L82,166ZM118,154L142,154L142,166L118,166ZM154,154L178,154L178,166L154,166ZM190,154L202,154L202,166L190,166ZM214,154L250,154L250,166L214,166ZM262,154L274,154L274,166L262,166ZM298,154L310,154L310,166L298,166ZM46,166L82,166L82,178L46,178ZM94,166L106,166L106,178L94,178ZM130,166L190,166L190,178L130,178ZM238,166L262,166L262,178L238,178ZM274,166L310,166L310,178L274,178ZM10,178L46,178L46,190L10,190ZM58,178L106,178L106,190L58,190ZM142,178L166,178L166,190L142,190ZM190,178L202,178L202,190L190,190ZM250,178L262,178L262,190L250,190ZM298,178L310,178L310,190L298,190ZM34,190L46,190L46,202L34,202ZM58,190L70,190L70,202L58,202ZM118,190L142,190L142,202L118,202ZM154,190L178,190L178,202L154,202ZM226,190L238,190L238,202L226,202ZM250,190L262,190L262,202L250,202ZM274,190L298,190L298,202L274,202ZM10,202L34,202L34,214L10,214ZM46,202L58,202L58,214L46,214ZM70,202L154,202L154,214L70,214ZM190,202L310,202L310,214L190,214ZM106,214L154,214L154,226L106,226ZM166,214L190,214L190,226L166,226ZM202,214L214,214L214,226L202,226ZM250,214L274,214L274,226L250,226ZM286,214L298,214L298,226L286,226ZM10,226L94,226L94,238L10,238ZM106,226L118,226L118,238L106,238ZM142,226L178,226L178,238L142,238ZM190,226L214,226L214,238L190,238ZM226,226L238,226L238,238L226,238ZM250,226L262,226L262,238L250,238ZM274,226L298,226L298,238L274,238ZM10,238L22,238L22,250L10,250ZM82,238L94,238L94,250L82,250ZM106,238L142,238L142,250L106,250ZM178,238L214,238L214,250L178,250ZM250,238L286,238L286,250L250,250ZM298,238L310,238L310,250L298,250ZM10,250L22,250L22,262L10,262ZM34,250L70,250L70,262L34,262ZM82,250L94,250L94,262L82,262ZM118,250L166,250L166,262L118,262ZM202,250L274,250L274,262L202,262ZM298,250L310,250L310,262L298,262ZM10,262L22,262L22,274L10,274ZM34,262L70,262L70,274L34,274ZM82,262L94,262L94,274L82,274ZM118,262L130,262L130,274L118,274ZM142,262L154,262L154,274L142,274ZM202,262L262,262L262,274L202,274ZM10,274L22,274L22,286L10,286ZM34,274L70,274L70,286L34,286ZM82,274L94,274L94,286L82,286ZM106,274L142,274L142,286L106,286ZM166,274L190,274L190,286L166,286ZM214,274L262,274L262,286L214,286ZM274,274L310,274L310,286L274,286ZM10,286L22,286L22,298L10,298ZM82,286L94,286L94,298L82,298ZM118,286L166,286L166,298L118,298ZM178,286L202,286L202,298L178,298ZM262,286L286,286L286,298L262,298ZM298,286L310,286L310,298L298,298ZM10,298L94,298L94,310L10,310ZM130,298L142,298L142,310L130,310ZM190,298L214,298L214,310L190,310ZM226,298L238,298L238,310L226,310ZM286,298L310,298L310,310L286,310Z"/></svg>
