<?xml version="1.0"?>
<svg xmlns="http://www.w3.org/2000/svg" xmlns:xlink="http://www.w3.org/1999/xlink" version="1.1" width="320px" height="320px" viewBox="0 0 320 320"><rect x="0" y="0" width="320" height="320" fill="#ffffff" fill-opacity="1"/><path fill="#000000" fill-opacity="1" d="M10,10L94,10L94,22L10,22ZM106,10L130,10L130,22L106,22ZM154,10L190,10L190,22L154,22ZM226,10L310,10L310,22L226,22ZM10,22L22,22L22,34L10,34ZM82,22L94,22L94,34L82,34ZM118,22L142,22L142,34L118,34ZM178,22L190,22L190,34L178,34ZM226,22L238,22L238,34L226,34ZM298,22L310,22L310,34L298,34ZM10,34L22,34L22,46L10,46ZM34,34L70,34L70,46L34,46ZM82,34L94,34L94,46L82,46ZM118,34L130,34L130,46L118,46ZM142,34L154,34L154,46L142,46ZM166,34L178,34L178,46L166,46ZM202,34L214,34L214,46L202,46ZM226,34L238,34L238,46L226,46ZM250,34L286,34L286,46L250,46ZM298,34L310,34L310,46L298,46ZM10,46L22,46L22,58L10,58ZM34,46L70,46L70,58L34,58ZM82,46L94,46L94,58L82,58ZM106,46L142,46L142,58L106,58ZM154,46L166,46L166,58L154,58ZM178,46L214,46L214,58L178,58ZM226,46L238,46L238,58L226,58ZM250,46L286,46L286,58L250,58ZM298,46L310,46L310,58L298,58ZM10,58L22,58L22,70L10,70ZM34,58L70,58L70,70L34,70ZM82,58L94,58L94,70L82,70ZM118,58L130,58L130,70L118,70ZM142,58L154,58L154,70L142,70ZM190,58L202,58L202,70L190,70ZM226,58L238,58L238,70L226,70ZM250,58L286,58L286,70L250,70ZM298,58L310,58L310,70L298,70ZM10,70L22,70L22,82L10,82ZM82,70L94,70L94,82L82,82ZM118,70L154,70L154,82L118,82ZM190,70L202,70L202,82L190,82ZM226,70L238,70L238,82L226,82ZM298,70L310,70L310,82L298,82ZM10,82L94,82L94,94L10,94ZM106,82L118,82L118,94L106,94ZM130,82L142,82L142,94L130,94ZM154,82L166,82L166,94L154,94ZM178,82L190,82L190,94L178,94ZM202,82L214,82L214,94L202,94ZM226,82L310,82L310,94L226,94ZM118,94L130,94L130,106L118,106ZM142,94L166,94L166,106L142,106ZM190,94L214,94L214,106L190,106ZM34,106L46,106L46,118L34,118ZM58,106L94,106L94,118L58,118ZM106,106L130,106L130,118L106,118ZM142,106L154,106L154,118L142,118ZM166,106L190,106L190,118L166,118ZM202,106L226,106L226,118L202,118ZM262,106L274,106L274,118L262,118ZM298,106L310,106L310,118L298,118ZM10,118L22,118L22,130L10,130ZM46,118L70,118L70,130L46,130ZM94,118L142,118L142,130L94,130ZM166,118L178,118L178,130L166,130ZM214,118L226,118L226,130L214,130ZM238,118L262,118L262,130L238,130ZM70,130L94,130L94,142L70,142ZM118,130L166,130L166,142L118,142ZM178,130L190,130L190,142L178,142ZM226,130L238,130L238,142L226,142ZM274,130L286,130L286,142L274,142ZM46,142L82,142L82,154L46,154ZM94,142L106,142L106,154L94,154ZM118,142L130,142L130,154L118,154ZM166,142L178,142L178,154L166,154ZM202,142L226,142L226,154L202,154ZM262,142L274,142L274,154L262,154ZM286,142L298,142L298,154L286,154ZM10,154L34,154L34,166L10,166ZM46,154L58,154L58,166L46,166ZM70,154L106,154L106,166L70,166ZM130,154L154,154L154,166L130,166ZM166,154L178,154L178,166L166,166ZM190,154L202,154L202,166L190,166ZM226,154L238,154L238,166L226,166ZM250,154L262,154L262,166L250,166ZM274,154L310,154L310,166L274,166ZM22,166L34,166L34,178L22,178ZM130,166L154,166L154,178L130,178ZM166,166L178,166L178,178L166,178ZM190,166L202,166L202,178L190,178ZM214,166L226,166L226,178L214,178ZM238,166L274,166L274,178L238,178ZM298,166L310,166L310,178L298,178ZM10,178L22,178L22,190L10,190ZM34,178L70,178L70,190L34,190ZM82,178L106,178L106,190L82,190ZM142,178L154,178L154,190L142,190ZM214,178L226,178L226,190L214,190ZM250,178L262,178L262,190L250,190ZM274,178L310,178L310,190L274,190ZM22,190L46,190L46,202L22,202ZM58,190L82,190L82,202L58,202ZM106,190L154,190L154,202L106,202ZM178,190L202,190L202,202L178,202ZM214,190L238,190L238,202L214,202ZM262,190L286,190L286,202L262,202ZM10,202L22,202L22,214L10,214ZM34,202L46,202L46,214L34,214ZM58,202L106,202L106,214L58,214ZM118,202L130,202L130,214L118,214ZM166,202L178,202L178,214L166,214ZM202,202L262,202L262,214L202,214ZM274,202L286,202L286,214L274,214ZM298,202L310,202L310,214L298,214ZM106,214L118,214L118,226L106,226ZM166,214L214,214L214,226L166,226ZM250,214L262,214L262,226L250,226ZM10,226L94,226L94,238L10,238ZM118,226L154,226L154,238L118,238ZM202,226L214,226L214,238L202,238ZM226,226L238,226L238,238L226,238ZM250,226L262,226L262,238L250,238ZM274,226L286,226L286,238L274,238ZM10,238L22,238L22,250L10,250ZM82,238L94,238L94,250L82,250ZM106,238L130,238L130,250L106,250ZM142,238L166,238L166,250L142,250ZM178,238L190,238L190,250L178,250ZM202,238L214,238L214,250L202,250ZM250,238L262,238L262,250L250,250ZM286,238L310,238L310,250L286,250ZM10,250L22,250L22,262L10,262ZM34,250L70,250L70,262L34,262ZM82,250L94,250L94,262L82,262ZM106,250L118,250L118,262L106,262ZM142,250L154,250L154,262L142,262ZM190,250L262,250L262,262L190,262ZM286,250L310,250L310,262L286,262ZM10,262L22,262L22,274L10,274ZM34,262L70,262L70,274L34,274ZM82,262L94,262L94,274L82,274ZM118,262L178,262L178,274L118,274ZM190,262L214,262L214,274L190,274ZM226,262L238,262L238,274L226,274ZM262,262L274,262L274,274L262,274ZM286,262L298,262L298,274L286,274ZM10,274L22,274L22,286L10,286ZM34,274L70,274L70,286L34,286ZM82,274L94,274L94,286L82,286ZM106,274L118,274L118,286L106,286ZM130,274L178,274L178,286L130,286ZM190,274L202,274L202,286L190,286ZM226,274L262,274L262,286L226,286ZM298,274L310,274L310,286L298,286ZM10,286L22,286L22,298L10,298ZM82,286L94,286L94,298L82,298ZM130,286L142,286L142,298L130,298ZM178,286L190,286L190,298L178,298ZM214,286L226,286L226,298L214,298ZM250,286L274,286L274,298L250,298ZM286,286L310,286L310,298L286,298ZM10,298L94,298L94,310L10,310ZM118,298L130,298L130,310L118,310ZM154,298L166,298L166,310L154,310ZM202,298L250,298L250,310L202,310ZM262,298L286,298L286,310L262,310ZM298,298L310,298L310,310L298,310Z"/></svg>
