<?xml version="1.0"?>
<svg xmlns="http://www.w3.org/2000/svg" xmlns:xlink="http://www.w3.org/1999/xlink" version="1.1" width="320px" height="320px" viewBox="0 0 320 320"><rect x="0" y="0" width="320" height="320" fill="#ffffff" fill-opacity="1"/><path fill="#000000" fill-opacity="1" d="M13,13L111,13L111,27L13,27ZM153,13L195,13L195,27L153,27ZM209,13L307,13L307,27L209,27ZM13,27L27,27L27,41L13,41ZM97,27L111,27L111,41L97,41ZM125,27L167,27L167,41L125,41ZM181,27L195,27L195,41L181,41ZM209,27L223,27L223,41L209,41ZM293,27L307,27L307,41L293,41ZM13,41L27,41L27,55L13,55ZM41,41L83,41L83,55L41,55ZM97,41L111,41L111,55L97,55ZM153,41L195,41L195,55L153,55ZM209,41L223,41L223,55L209,55ZM237,41L279,41L279,55L237,55ZM293,41L307,41L307,55L293,55ZM13,55L27,55L27,69L13,69ZM41,55L83,55L83,69L41,69ZM97,55L111,55L111,69L97,69ZM125,55L153,55L153,69L125,69ZM181,55L195,55L195,69L181,69ZM209,55L223,55L223,69L209,69ZM237,55L279,55L279,69L237,69ZM293,55L307,55L307,69L293,69ZM13,69L27,69L27,83L13,83ZM41,69L83,69L83,83L41,83ZM97,69L111,69L111,83L97,83ZM139,69L153,69L153,83L139,83ZM181,69L195,69L195,83L181,83ZM209,69L223,69L223,83L209,83ZM237,69L279,69L279,83L237,83ZM293,69L307,69L307,83L293,83ZM13,83L27,83L27,97L13,97ZM97,83L111,83L111,97L97,97ZM125,83L139,83L139,97L125,97ZM167,83L181,83L181,97L167,97ZM209,83L223,83L223,97L209,97ZM293,83L307,83L307,97L293,97ZM13,97L111,97L111,111L13,111ZM125,97L139,97L139,111L125,111ZM153,97L167,97L167,111L153,111ZM181,97L195,97L195,111L181,111ZM209,97L307,97L307,111L209,111ZM139,111L153,111L153,125L139,125ZM13,125L83,125L83,139L13,139ZM97,125L139,125L139,139L97,139ZM167,125L181,125L181,139L167,139ZM195,125L209,125L209,139L195,139ZM223,125L237,125L237,139L223,139ZM251,125L265,125L265,139L251,139ZM279,125L293,125L293,139L279,139ZM13,139L55,139L55,153L13,153ZM125,139L153,139L153,153L125,153ZM167,139L195,139L195,153L167,153ZM223,139L237,139L237,153L223,153ZM265,139L293,139L293,153L265,153ZM13,153L41,153L41,167L13,167ZM55,153L69,153L69,167L55,167ZM97,153L111,153L111,167L97,167ZM153,153L167,153L167,167L153,167ZM181,153L223,153L223,167L181,167ZM251,153L265,153L265,167L251,167ZM293,153L307,153L307,167L293,167ZM153,167L195,167L195,181L153,181ZM209,167L223,167L223,181L209,181ZM237,167L279,167L279,181L237,181ZM13,181L27,181L27,195L13,195ZM41,181L167,181L167,195L41,195ZM181,181L195,181L195,195L181,195ZM209,181L237,181L237,195L209,195ZM265,181L307,181L307,195L265,195ZM125,195L153,195L153,209L125,209ZM181,195L195,195L195,209L181,209ZM237,195L293,195L293,209L237,209ZM13,209L111,209L111,223L13,223ZM125,209L139,209L139,223L125,223ZM167,209L181,209L181,223L167,223ZM223,209L237,209L237,223L223,223ZM13,223L27,223L27,237L13,237ZM97,223L111,223L111,237L97,237ZM139,223L153,223L153,237L139,237ZM223,223L237,223L237,237L223,237ZM293,223L307,223L307,237L293,237ZM13,237L27,237L27,251L13,251ZM41,237L83,237L83,251L41,251ZM97,237L111,237L111,251L97,251ZM125,237L153,237L153,251L125,251ZM167,237L181,237L181,251L167,251ZM223,237L251,237L251,251L223,251ZM279,237L293,237L293,251L279,251ZM13,251L27,251L27,265L13,265ZM41,251L83,251L83,265L41,265ZM97,251L111,251L111,265L97,265ZM125,251L139,251L139,265L125,265ZM153,251L223,251L223,265L153,265ZM265,251L279,251L279,265L265,265ZM13,265L27,265L27,279L13,279ZM41,265L83,265L83,279L41,279ZM97,265L111,265L111,279L97,279ZM125,265L139,265L139,279L125,279ZM153,265L167,265L167,279L153,279ZM181,265L195,265L195,279L181,279ZM209,265L251,265L251,279L209,279ZM265,265L279,265L279,279L265,279ZM13,279L27,279L27,293L13,293ZM97,279L111,279L111,293L97,293ZM125,279L139,279L139,293L125,293ZM167,279L237,279L237,293L167,293ZM251,279L265,279L265,293L251,293ZM293,279L307,279L307,293L293,293ZM13,293L111,293L111,307L13,307ZM125,293L167,293L167,307L125,307ZM181,293L195,293L195,307L181,307ZM223,293L251,293L251,307L223,307ZM265,293L279,293L279,307L265,307Z"/></svg>
