<?xml version="1.0"?>
<svg xmlns="http://www.w3.org/2000/svg" xmlns:xlink="http://www.w3.org/1999/xlink" version="1.1" width="320px" height="320px" viewBox="0 0 320 320"><rect x="0" y="0" width="320" height="320" fill="#ffffff" fill-opacity="1"/><path fill="#000000" fill-opacity="1" d="M13,13L111,13L111,27L13,27ZM125,13L139,13L139,27L125,27ZM153,13L195,13L195,27L153,27ZM209,13L307,13L307,27L209,27ZM13,27L27,27L27,41L13,41ZM97,27L111,27L111,41L97,41ZM153,27L181,27L181,41L153,41ZM209,27L223,27L223,41L209,41ZM293,27L307,27L307,41L293,41ZM13,41L27,41L27,55L13,55ZM41,41L83,41L83,55L41,55ZM97,41L111,41L111,55L97,55ZM125,41L153,41L153,55L125,55ZM167,41L181,41L181,55L167,55ZM209,41L223,41L223,55L209,55ZM237,41L279,41L279,55L237,55ZM293,41L307,41L307,55L293,55ZM13,55L27,55L27,69L13,69ZM41,55L83,55L83,69L41,69ZM97,55L111,55L111,69L97,69ZM125,55L153,55L153,69L125,69ZM181,55L195,55L195,69L181,69ZM209,55L223,55L223,69L209,69ZM237,55L279,55L279,69L237,69ZM293,55L307,55L307,69L293,69ZM13,69L27,69L27,83L13,83ZM41,69L83,69L83,83L41,83ZM97,69L111,69L111,83L97,83ZM125,69L139,69L139,83L125,83ZM167,69L181,69L181,83L167,83ZM209,69L223,69L223,83L209,83ZM237,69L279,69L279,83L237,83ZM293,69L307,69L307,83L293,83ZM13,83L27,83L27,97L13,97ZM97,83L111,83L111,97L97,97ZM139,83L195,83L195,97L139,97ZM209,83L223,83L223,97L209,97ZM293,83L307,83L307,97L293,97ZM13,97L111,97L111,111L13,111ZM125,97L139,97L139,111L125,111ZM153,97L167,97L167,111L153,111ZM181,97L195,97L195,111L181,111ZM209,97L307,97L307,111L209,111ZM167,111L195,111L195,125L167,125ZM13,125L69,125L69,139L13,139ZM97,125L111,125L111,139L97,139ZM125,125L209,125L209,139L125,139ZM237,125L279,125L279,139L237,139ZM293,125L307,125L307,139L293,139ZM55,139L83,139L83,153L55,153ZM139,139L209,139L209,153L139,153ZM223,139L251,139L251,153L223,153ZM265,139L293,139L293,153L265,153ZM13,153L41,153L41,167L13,167ZM69,153L111,153L111,167L69,167ZM125,153L139,153L139,167L125,167ZM167,153L181,153L181,167L167,167ZM195,153L209,153L209,167L195,167ZM279,153L307,153L307,167L279,167ZM13,167L27,167L27,181L13,181ZM69,167L97,167L97,181L69,181ZM111,167L125,167L125,181L111,181ZM153,167L181,167L181,181L153,181ZM209,167L237,167L237,181L209,181ZM265,167L279,167L279,181L265,181ZM41,181L55,181L55,195L41,195ZM69,181L167,181L167,195L69,195ZM181,181L195,181L195,195L181,195ZM209,181L251,181L251,195L209,195ZM265,181L293,181L293,195L265,195ZM125,195L153,195L153,209L125,209ZM167,195L181,195L181,209L167,209ZM209,195L223,195L223,209L209,209ZM251,195L265,195L265,209L251,209ZM13,209L111,209L111,223L13,223ZM167,209L209,209L209,223L167,223ZM237,209L251,209L251,223L237,223ZM265,209L293,209L293,223L265,223ZM13,223L27,223L27,237L13,237ZM97,223L111,223L111,237L97,237ZM153,223L167,223L167,237L153,237ZM223,223L237,223L237,237L223,237ZM265,223L279,223L279,237L265,237ZM293,223L307,223L307,237L293,237ZM13,237L27,237L27,251L13,251ZM41,237L83,237L83,251L41,251ZM97,237L111,237L111,251L97,251ZM181,237L195,237L195,251L181,251ZM209,237L223,237L223,251L209,251ZM279,237L307,237L307,251L279,251ZM13,251L27,251L27,265L13,265ZM41,251L83,251L83,265L41,265ZM97,251L111,251L111,265L97,265ZM125,251L139,251L139,265L125,265ZM167,251L181,251L181,265L167,265ZM209,251L223,251L223,265L209,265ZM237,251L251,251L251,265L237,265ZM265,251L293,251L293,265L265,265ZM13,265L27,265L27,279L13,279ZM41,265L83,265L83,279L41,279ZM97,265L111,265L111,279L97,279ZM125,265L153,265L153,279L125,279ZM181,265L195,265L195,279L181,279ZM209,265L223,265L223,279L209,279ZM237,265L279,265L279,279L237,279ZM13,279L27,279L27,293L13,293ZM97,279L111,279L111,293L97,293ZM125,279L153,279L153,293L125,293ZM195,279L209,279L209,293L195,293ZM223,279L251,279L251,293L223,293ZM13,293L111,293L111,307L13,307ZM125,293L153,293L153,307L125,307ZM195,293L209,293L209,307L195,307ZM237,293L265,293L265,307L237,307ZM279,293L293,293L293,307L279,307Z"/></svg>
